# xmcd
#
# Track frame offsets:
#	150
#	22353
#	38949
#	59295
#	80851
#	96039
#	119060
#	133274
#	153667
#	178655
#	200959
#	219883
#	231158
#	248814
#	264469
#	281370
#	308026
#	318205
#	328773
#
# Disc length: 4595 seconds
#
# Revision: 0
# Processed by: cddbd v1.4PL0 Copyright (c) Steve Scherf et al.
# Submitted via: dBpowerAMP V4.0
#
DISCID=2311f113
DTITLE=Louis Armstrong and Ella Fitzgerald - L.A. and E.F.
DYEAR=1900
DGENRE=Blues
TTITLE0=Summertime
TTITLE1=Moonlight in Vermut
TTITLE2=They can't take that away from me 
TTITLE3=I won't dance
TTITLE4=I'm putting all my eggs in one basket
TTITLE5=Tenderly
TTITLE6=I've got my love to keep me warm
TTITLE7=A Foggy Day
TTITLE8=The nearness of you
TTITLE9=Don't be this way
TTITLE10=Let's call the whole thing of
TTITLE11=A fine romance
TTITLE12=Love is here to stay
TTITLE13=Stars fell on Alabama
TTITLE14=Can't we be friends
TTITLE15=Cheek to cheek
TTITLE16=What a wonderful world
TTITLE17=I can't give you anything but love
TTITLE18=A fine romance
EXTD=
EXTT0=
EXTT1=
EXTT2=
EXTT3=
EXTT4=
EXTT5=
EXTT6=
EXTT7=
EXTT8=
EXTT9=
EXTT10=
EXTT11=
EXTT12=
EXTT13=
EXTT14=
EXTT15=
EXTT16=
EXTT17=
EXTT18=
PLAYORDER=
